<svg id="Laag_1" data-name="Laag 1" xmlns="http://www.w3.org/2000/svg" viewBox="0 0 170.89 170.89"><defs><style>.cls-1{fill:#fff;}</style></defs><title>Icon_SmarterPhone</title><path class="cls-1" d="M297.91,223.37H180.57a26.78,26.78,0,0,0-26.78,26.78V367.48a26.78,26.78,0,0,0,26.78,26.78H297.91a26.78,26.78,0,0,0,26.78-26.78V250.14A26.78,26.78,0,0,0,297.91,223.37Zm-87.78,85.44A16.77,16.77,0,1,1,226.9,292,16.77,16.77,0,0,1,210.13,308.81Zm58.23,0A16.77,16.77,0,1,1,285.13,292,16.77,16.77,0,0,1,268.35,308.81Z" transform="translate(-153.8 -223.37)"/></svg>